:SAMPLES-PER-SECOND 30
:FULLY-SPECIFIED
:DEGREES
1470
root  -59.8026 35.8258 -0.972318 -16.4616 -73.3607 37.3018
RightUpLeg  -60.8413 -24.9668 -5.92096
RightLeg  49.6591 7.96161 9.56539
RightFoot  -6.72128 0.0175612 -1.56348
RightToes  2.32829e-010 0 -3.6325e-017
Spine  73.4436 -19.1717 15.1212
Spine1  -8.90329 -10.098 -7.45187
HEad  -45.046 -10.6245 1.27807
LeftShoulder1  1.35534 -17.5187 2.2945
LeftArm  -50.7192 -66.7924 -7.24285
LeftForeArm  -8.57128 -14.0094 1.01782
LeftHand  -0.132143 2.63458 5.10102
RightShoulder  0.857369 7.76538 -0.953747
RightArm  -47.2097 65.981 -6.37236
RightForeArm  -36.6195 -2.02256 -0.278028
RightHand  -1.23425 14.2298 -7.69923
LeftUpLeg  -55.6914 -11.867 -11.4887
LeftLeg  39.8268 -0.679831 -0.238668
LeftFoot  -0.513585 -0.953524 10.0593
LeftToes  -3.54706e-010 1.16038e-010 5.28031e-012
1471
root  -60.1502 35.6938 -1.10038 -16.6615 -73.079 38.4377
RightUpLeg  -61.9038 -24.465 -6.2299
RightLeg  51.0272 7.22203 9.09852
RightFoot  -7.82971 -0.0160877 -1.1876
RightToes  2.32829e-010 0 -3.6325e-017
Spine  75.0071 -19.6816 14.6625
Spine1  -9.9247 -10.5698 -7.96566
HEad  -45.1486 -10.5046 1.96861
LeftShoulder1  1.08991 -17.8133 3.81353
LeftArm  -54.4663 -66.0095 -3.13003
LeftForeArm  -9.39836 -14.0478 1.41736
LeftHand  -0.150272 2.37051 5.41976
RightShoulder  0.80258 8.28505 -1.8547
RightArm  -49.7358 65.1125 -8.92468
RightForeArm  -37.5485 -1.82115 -0.79855
RightHand  -1.39744 14.7133 -8.45989
LeftUpLeg  -56.9209 -12.3851 -11.3944
LeftLeg  41.3189 -0.0831763 0.293741
LeftFoot  -1.22638 -0.838241 9.53098
LeftToes  -3.54706e-010 1.16038e-010 5.28031e-012
1472
root  -60.4641 35.6211 -1.2199 -17.2413 -72.8269 39.9001
RightUpLeg  -62.9144 -24.2737 -6.34396
RightLeg  52.094 6.63247 8.66426
RightFoot  -8.62865 -0.0378609 -0.890961
RightToes  2.32829e-010 0 -3.6325e-017
Spine  75.8601 -19.7885 14.2143
Spine1  -9.88283 -10.7581 -8.08422
HEad  -46.0232 -10.7389 2.3558
LeftShoulder1  0.828986 -18.115 5.27813
LeftArm  -58.5713 -65.5396 0.876582
LeftForeArm  -10.1216 -13.7733 2.2195
LeftHand  -0.100547 3.11289 4.36164
RightShoulder  0.677369 8.88916 -3.41365
RightArm  -51.9857 63.6638 -11.5062
RightForeArm  -38.0439 -1.96104 -1.41724
RightHand  -1.11103 13.9899 -7.07021
LeftUpLeg  -57.9329 -13.1071 -11.0703
LeftLeg  42.2333 0.490658 0.854819
LeftFoot  -1.70416 -0.746784 8.96349
LeftToes  -3.54706e-010 1.16038e-010 5.28031e-012
1473
root  -60.7433 35.475 -1.30033 -14.422 -72.5433 38.864
RightUpLeg  -65.156 -24.203 -5.49424
RightLeg  53.355 6.03417 8.23479
RightFoot  -8.88741 -0.0263442 -1.57163
RightToes  2.32829e-010 0 -3.6325e-017
Spine  75.7716 -20.0259 15.005
Spine1  -11.577 -10.8793 -7.95145
HEad  -45.6446 -11.769 1.99362
LeftShoulder1  0.713799 -18.1873 5.8947
LeftArm  -59.6544 -65.5783 1.29412
LeftForeArm  -9.0447 -13.6304 2.65172
LeftHand  -0.0691311 3.33569 3.02611
RightShoulder  0.652384 9.09708 -3.73422
RightArm  -52.1692 62.9745 -12.2927
RightForeArm  -38.0298 -2.059 -1.51252
RightHand  -1.18264 14.4478 -7.33468
LeftUpLeg  -60.2917 -13.8321 -10.1296
LeftLeg  43.6133 0.595003 0.99115
LeftFoot  -2.17051 -0.685963 8.69744
LeftToes  -3.54706e-010 1.16038e-010 5.28031e-012
1474
root  -61.0181 35.4826 -1.40044 -15.0403 -72.4509 40.2131
RightUpLeg  -65.8166 -24.0612 -5.52799
RightLeg  53.896 5.78869 8.04909
RightFoot  -9.15406 -0.028704 -1.73696
RightToes  2.32829e-010 0 -3.6325e-017
Spine  76.3049 -20.2194 14.4257
Spine1  -11.2057 -11.2161 -8.39501
HEad  -46.6472 -10.7688 2.6967
LeftShoulder1  0.514548 -18.3631 6.96957
LeftArm  -60.8946 -64.5184 4.70406
LeftForeArm  -11.8794 -13.0735 2.87933
LeftHand  -0.0817516 3.2503 3.59786
RightShoulder  0.552272 9.35353 -4.74875
RightArm  -54.2774 62.5903 -13.722
RightForeArm  -38.409 -2.23466 -2.09263
RightHand  -1.13282 14.7988 -6.93109
LeftUpLeg  -60.8535 -14.0422 -10.0045
LeftLeg  44.0312 0.712018 1.12481
LeftFoot  -2.50527 -0.615426 8.14711
LeftToes  -3.54706e-010 1.16038e-010 5.28031e-012
1475
root  -61.2256 35.5325 -1.49908 -16.2404 -72.5143 41.4514
RightUpLeg  -65.6416 -23.8057 -5.77882
RightLeg  54.2138 5.75911 8.10247
RightFoot  -9.17464 -0.020838 -2.17534
RightToes  2.32829e-010 0 -3.6325e-017
Spine  77.6903 -19.9856 13.7344
Spine1  -11.9306 -11.192 -7.9897
HEad  -46.8795 -10.8937 2.95714
LeftShoulder1  0.489998 -18.2243 7.07994
LeftArm  -62.1099 -64.7326 5.15658
LeftForeArm  -11.9055 -12.8178 3.38766
LeftHand  -0.066438 3.7092 3.26159
RightShoulder  0.523714 9.45473 -5.04453
RightArm  -55.3092 62.2638 -14.914
RightForeArm  -38.1006 -2.2217 -2.30582
RightHand  -1.13489 14.1466 -7.15121
LeftUpLeg  -60.6422 -14.1863 -9.8528
LeftLeg  44.171 0.959858 1.38831
LeftFoot  -2.73826 -0.564058 7.70823
LeftToes  -3.54706e-010 1.16038e-010 5.28031e-012
1476
root  -61.3919 35.5382 -1.56643 -15.8848 -72.6926 41.4053
RightUpLeg  -65.8381 -23.5049 -5.56424
RightLeg  54.4526 5.63585 7.99374
RightFoot  -9.44577 -0.0303591 -2.02951
RightToes  2.32829e-010 0 -3.6325e-017
Spine  78.1369 -20.6481 13.3988
Spine1  -12.1885 -11.9641 -9.07756
HEad  -47.1335 -9.8948 3.63643
LeftShoulder1  0.526162 -18.2129 6.8884
LeftArm  -63.9216 -63.0132 6.69012
LeftForeArm  -9.21196 -13.9972 2.8812
LeftHand  -0.111473 2.56868 4.15669
RightShoulder  0.439649 8.99597 -5.63992
RightArm  -57.0416 63.072 -12.8054
RightForeArm  -36.0016 -1.41927 -3.42241
RightHand  -1.3132 14.9746 -7.89369
LeftUpLeg  -60.9883 -14.5022 -9.22518
LeftLeg  44.5095 1.38397 1.84851
LeftFoot  -3.08397 -0.528646 7.56844
LeftToes  -3.54706e-010 1.16038e-010 5.28031e-012
1477
root  -61.4964 35.5047 -1.64309 -15.8013 -72.7598 41.3429
RightUpLeg  -65.9435 -23.3145 -5.43769
RightLeg  54.8916 5.47134 7.88135
RightFoot  -9.64161 -0.0328559 -2.18167
RightToes  2.32829e-010 0 -3.6325e-017
Spine  78.2985 -20.3425 13.235
Spine1  -12.0515 -11.7736 -8.7897
HEad  -47.19 -10.0871 3.3923
LeftShoulder1  0.519245 -18.0553 6.90449
LeftArm  -63.7463 -62.6059 7.36548
LeftForeArm  -9.63687 -14.4119 2.29141
LeftHand  -0.104814 2.66739 3.93975
RightShoulder  0.458648 9.04336 -5.48311
RightArm  -55.6421 62.6898 -13.7012
RightForeArm  -37.4061 -1.3357 -2.60928
RightHand  -1.51605 15.6019 -8.78224
LeftUpLeg  -61.2011 -14.8181 -8.70128
LeftLeg  44.988 1.67859 2.19042
LeftFoot  -3.48586 -0.469732 7.1379
LeftToes  -3.54706e-010 1.16038e-010 5.28031e-012
1478
root  -61.5525 35.4397 -1.71606 -15.8332 -72.818 41.4779
RightUpLeg  -66.156 -23.0261 -5.40399
RightLeg  55.2559 5.28974 7.71502
RightFoot  -10.1497 -0.0456157 -2.21405
RightToes  2.32829e-010 0 -3.6325e-017
Spine  78.1519 -19.6885 13.1839
Spine1  -12.2361 -11.3506 -8.08217
HEad  -47.132 -10.675 3.14327
LeftShoulder1  0.523176 -17.8635 6.85847
LeftArm  -63.1398 -63.1362 6.15129
LeftForeArm  -8.82712 -14.5169 2.1678
LeftHand  -0.139268 2.22013 4.81908
RightShoulder  0.540547 9.01164 -4.72142
RightArm  -54.7975 62.5779 -14.4287
RightForeArm  -38.1775 -1.16425 -2.02247
RightHand  -1.65528 15.8345 -9.44835
LeftUpLeg  -61.4905 -14.7471 -8.5466
LeftLeg  45.4465 1.71489 2.2621
LeftFoot  -3.95642 -0.425544 6.95744
LeftToes  -3.54706e-010 1.16038e-010 5.28031e-012
1479
root  -61.5604 35.4062 -1.78537 -15.412 -72.877 40.9155
RightUpLeg  -66.0711 -22.667 -5.33854
RightLeg  55.4672 5.08148 7.45735
RightFoot  -10.2744 -0.0489245 -2.21096
RightToes  2.32829e-010 0 -3.6325e-017
Spine  77.6767 -19.3255 13.442
Spine1  -11.6192 -10.9282 -7.8323
HEad  -47.5826 -11.2613 2.95281
LeftShoulder1  0.501191 -17.6603 6.94987
LeftArm  -64.0745 -64.2686 5.49881
LeftForeArm  -8.25165 -14.3746 2.55373
LeftHand  -0.12992 3.00468 5.71802
RightShoulder  0.581713 9.06542 -4.36435
RightArm  -55.4544 62.5763 -15.741
RightForeArm  -37.4925 -1.99169 -2.05495
RightHand  -1.50081 14.8309 -9.01289
LeftUpLeg  -61.5503 -14.6994 -8.26285
LeftLeg  45.7393 1.73161 2.30103
LeftFoot  -4.15304 -0.419997 7.07524
LeftToes  -3.54706e-010 1.16038e-010 5.28031e-012
